<?xml version="1.0" encoding="UTF-8"?><!DOCTYPE svg PUBLIC "-//W3C//DTD SVG 1.1//EN" "http://www.w3.org/Graphics/SVG/1.1/DTD/svg11.dtd"><svg xmlns="http://www.w3.org/2000/svg" xmlns:xlink="http://www.w3.org/1999/xlink"><symbol id="icon-1" viewBox="0 0 180 180"><circle cx="90" cy="90" r="76.5" stroke="#0AD9C6" stroke-width="27"/></symbol><symbol id="icon-2" viewBox="0 0 47 47"><path stroke="#0AD9C6" stroke-width="8" d="M4 4h39v39H4z"/></symbol><symbol id="icon-3" viewBox="0 0 95 95"><circle cx="47.5" cy="47.5" r="39" stroke="#0AD9C6" stroke-width="17"/></symbol><symbol id="icon-4" viewBox="0 0 65 65"><path fill-rule="evenodd" clip-rule="evenodd" d="M32.5 65C50.45 65 65 50.45 65 32.5S50.45 0 32.5 0 0 14.55 0 32.5 14.55 65 32.5 65z" fill="#0AD9C6"/><path fill-rule="evenodd" clip-rule="evenodd" d="M28.6 23.4l13 9.1-13 9.1V23.4z" fill="#070707"/></symbol><symbol id="icon-5" viewBox="0 0 26 20"><path d="M24.227 0H1.773C.768 0 0 .765 0 1.765v16.47C0 19.235.768 20 1.773 20h22.454C25.232 20 26 19.235 26 18.235V1.765C26 .765 25.232 0 24.227 0zm0 17l-4.668-4.647a.86.86 0 00-1.24 0 .85.85 0 000 1.235l4.667 4.647H3.014l4.668-4.647a.85.85 0 000-1.235.86.86 0 00-1.241 0L1.773 17V5.706l10.636 8a.955.955 0 00.532.176.955.955 0 00.532-.176l10.754-8V17zm0-15.235V3.47l-11.286 8.352L1.773 3.471V1.765h22.454z" fill="#0AD9C6"/></symbol><symbol id="icon-6" viewBox="0 0 17 24">
<path d="M1.45616 6.74199C1.37161 5.54391 1.63734 4.36374 2.34096 3.41452C2.95096 2.554 3.74517 2.08404 4.70245 1.8094C5.50874 1.57018 6.03721 1.86329 6.26974 2.75972C6.60192 4.09991 7.07604 5.44018 7.24817 6.85129C7.30253 7.47252 6.90089 8.35089 6.46604 8.80328C5.37589 9.87655 5.60238 10.6576 6.42982 12.282C6.6865 12.8057 7.09418 13.7111 7.88839 14.9096C8.71583 16.1169 9.1537 16.7649 10.2167 16.2152C11.3974 15.6212 12.2581 16.0032 13.1489 16.9621C13.7529 17.6546 14.4172 18.2495 15.0212 18.942C15.8939 19.9718 15.8547 20.6818 15.1722 21.4091C13.9431 22.7486 11.9138 23.1913 10.4039 22.2943C9.57045 21.8058 8.74 21.1664 8.07866 20.4206C5.16453 17.1002 3.06272 13.2388 1.79741 8.88089C1.59508 8.14421 1.50146 7.39872 1.45616 6.74199Z" stroke="#0AD9C6" stroke-width="2" stroke-miterlimit="10" fill="#ffffff"/>
</symbol><symbol id="icon-7" viewBox="0 0 127 127"><circle cx="63.5" cy="63.5" r="54.5" stroke="#0AD9C6" stroke-width="18"/></symbol><symbol id="icon-8" viewBox="0 0 68 68"><circle cx="34" cy="34" r="27.5" stroke="#0AD9C6" stroke-width="13"/></symbol><symbol id="icon-9" viewBox="0 0 91 91"><path fill-rule="evenodd" clip-rule="evenodd" d="M45.179 90.358c24.951 0 45.179-20.228 45.179-45.18C90.358 20.229 70.13 0 45.178 0 20.229 0 0 20.227 0 45.179 0 70.13 20.227 90.358 45.179 90.358z" fill="#0AD9C6"/><path fill-rule="evenodd" clip-rule="evenodd" d="M39.757 32.529l18.072 12.65-18.072 12.65v-25.3z" fill="#070707"/></symbol><symbol id="icon-down-arrow" viewBox="0 0 8 12"><path fill-rule="evenodd" clip-rule="evenodd" d="M0 1.4L4.6 6 0 10.6 1.4 12l6-6-6-6L0 1.4z" fill="#2C2E3F" fill-opacity=".5"/></symbol></svg>